<svg xmlns="http://www.w3.org/2000/svg" xmlns:xlink="http://www.w3.org/1999/xlink" viewBox="0 0 101.2 64"><defs><style>.cls-1{fill:url(#linear-gradient);}.cls-2{fill:url(#linear-gradient-2);}.cls-3{fill:url(#linear-gradient-3);}.cls-4{fill:url(#linear-gradient-4);}.cls-5{fill:#932fe9;}</style><linearGradient id="linear-gradient" x1="-319.89" y1="-1104.64" x2="-365.15" y2="-1149.89" gradientTransform="translate(-534.27 1071.29) rotate(45)" gradientUnits="userSpaceOnUse"><stop offset="0" stop-color="#b757c7"/><stop offset="1" stop-color="#9531e7"/></linearGradient><linearGradient id="linear-gradient-2" x1="-277.54" y1="-1146.99" x2="-322.79" y2="-1192.24" gradientTransform="translate(-534.27 1071.29) rotate(45)" gradientUnits="userSpaceOnUse"><stop offset="0" stop-color="#9531e7"/><stop offset="1" stop-color="#b757c7"/></linearGradient><linearGradient id="linear-gradient-3" x1="41.25" y1="8.11" x2="59.84" y2="8.11" gradientTransform="matrix(1, 0, 0, 1, 0, 0)" xlink:href="#linear-gradient-2"/><linearGradient id="linear-gradient-4" x1="41.25" y1="55.89" x2="59.84" y2="55.89" gradientTransform="matrix(1, 0, 0, 1, 0, 0)" xlink:href="#linear-gradient"/></defs><g id="Layer_2" data-name="Layer 2"><g id="Layer_1-2" data-name="Layer 1"><g id="logo"><path class="cls-1" d="M20.17,28,41.25,6.88,36,1.67a5.72,5.72,0,0,0-8.08,0L1.67,28a5.72,5.72,0,0,0,0,8.08L28,62.33a5.72,5.72,0,0,0,8.08,0l5.21-5.21L20.17,36A5.7,5.7,0,0,1,20.17,28Z"/><path class="cls-2" d="M99.52,28,73.24,1.67a5.73,5.73,0,0,0-8.09,0L59.84,7l21,21a5.72,5.72,0,0,1,0,8.08l-21,21,5.31,5.31a5.73,5.73,0,0,0,8.09,0L99.52,36A5.72,5.72,0,0,0,99.52,28Z"/><path class="cls-3" d="M59.84,7l-5.3-5.31a5.73,5.73,0,0,0-8.09,0l-5.2,5.21,9.35,9.35Z"/><path class="cls-4" d="M41.25,57.12l5.2,5.21a5.73,5.73,0,0,0,8.09,0L59.84,57,50.6,47.77Z"/><path class="cls-5" d="M38.87,36,50.6,47.77,62.33,36a5.72,5.72,0,0,0,0-8.08L50.6,16.23,38.87,28A5.72,5.72,0,0,0,38.87,36Z"/></g></g></g></svg>