<?xml version="1.0" encoding="utf-8"?>
<!-- Generator: Adobe Illustrator 25.4.1, SVG Export Plug-In . SVG Version: 6.00 Build 0)  -->
<svg version="1.1" id="Layer_1" xmlns="http://www.w3.org/2000/svg" xmlns:xlink="http://www.w3.org/1999/xlink" x="0px" y="0px"
	 viewBox="0 0 24 24" style="enable-background:new 0 0 24 24;" xml:space="preserve">
<style type="text/css">
	.st0{fill:#252F3E;}
</style>
<path class="st0" d="M6.8,10c0,0.3,0,0.5,0.1,0.7c0.1,0.2,0.1,0.4,0.3,0.6c0,0.1,0.1,0.1,0.1,0.2c0,0.1,0,0.2-0.2,0.2l-0.5,0.3
	c-0.1,0-0.1,0.1-0.2,0.1c-0.1,0-0.2,0-0.2-0.1c-0.1-0.1-0.2-0.2-0.3-0.4c-0.1-0.1-0.2-0.3-0.2-0.5c-0.6,0.7-1.4,1.1-2.3,1.1
	c-0.7,0-1.2-0.2-1.6-0.6C1.2,11.3,1,10.8,1,10.2C1,9.5,1.2,9,1.7,8.5c0.5-0.4,1.1-0.6,2-0.6c0.3,0,0.6,0,0.8,0.1
	c0.3,0,0.6,0.1,0.9,0.2V7.6c0-0.6-0.1-1-0.4-1.3C4.8,6.1,4.4,5.9,3.8,5.9C3.5,5.9,3.2,6,2.9,6S2.3,6.2,2,6.3
	C1.9,6.4,1.8,6.4,1.8,6.4c-0.1,0-0.1,0-0.1,0c-0.1,0-0.2-0.1-0.2-0.2V5.8c0-0.1,0-0.2,0.1-0.3c0-0.1,0.1-0.1,0.2-0.2
	C2,5.2,2.4,5.1,2.7,5C3.1,4.9,3.6,4.8,4,4.8c0.9,0,1.6,0.2,2.1,0.6c0.4,0.4,0.7,1.1,0.7,2L6.8,10L6.8,10z M3.5,11.2
	c0.3,0,0.5,0,0.8-0.1c0.3-0.1,0.5-0.3,0.8-0.5c0.1-0.2,0.2-0.3,0.3-0.5c0-0.2,0.1-0.4,0.1-0.7V9.1C5.2,9,5,9,4.7,8.9
	c-0.3,0-0.5,0-0.8,0C3.4,8.9,3,9,2.8,9.2s-0.4,0.5-0.4,0.9c0,0.4,0.1,0.7,0.3,0.8C2.9,11.2,3.2,11.2,3.5,11.2L3.5,11.2z M9.9,12.1
	c-0.1,0-0.2,0-0.3-0.1c-0.1,0-0.1-0.2-0.2-0.3L7.6,5.6c0-0.2-0.1-0.3-0.1-0.3C7.5,5.1,7.6,5,7.7,5h0.8c0.2,0,0.3,0,0.3,0.1
	c0.1,0,0.1,0.2,0.2,0.3l1.3,5.3l1.2-5.3c0-0.2,0.1-0.3,0.2-0.3C11.8,5.1,11.9,5,12,5h0.6c0.2,0,0.3,0,0.3,0.1c0.1,0,0.1,0.2,0.2,0.3
	l1.3,5.3l1.4-5.3c0-0.2,0.1-0.3,0.2-0.3C16,5.1,16.1,5,16.2,5H17c0.1,0,0.2,0.1,0.2,0.2c0,0,0,0.1,0,0.1c0,0,0,0.1-0.1,0.2l-1.9,6.2
	c0,0.2-0.1,0.3-0.2,0.3c-0.1,0-0.2,0.1-0.3,0.1H14c-0.2,0-0.3,0-0.3-0.1c-0.1-0.1-0.1-0.2-0.2-0.3l-1.2-5.1l-1.2,5.1
	c0,0.2-0.1,0.3-0.2,0.3c-0.1,0.1-0.2,0.1-0.3,0.1H9.9z M20.2,12.3c-0.4,0-0.8,0-1.2-0.1c-0.4-0.1-0.7-0.2-0.9-0.3
	c-0.1-0.1-0.2-0.2-0.2-0.2c0-0.1,0-0.2,0-0.2V11c0-0.2,0.1-0.2,0.2-0.2c0,0,0.1,0,0.1,0c0,0,0.1,0,0.2,0.1c0.3,0.1,0.6,0.2,0.9,0.3
	c0.3,0.1,0.6,0.1,0.9,0.1c0.5,0,0.9-0.1,1.2-0.3c0.3-0.2,0.4-0.4,0.4-0.8c0-0.2-0.1-0.4-0.2-0.6c-0.1-0.2-0.4-0.3-0.8-0.4l-1.2-0.4
	c-0.6-0.2-1-0.5-1.3-0.8c-0.3-0.4-0.4-0.7-0.4-1.2c0-0.3,0.1-0.6,0.2-0.9s0.3-0.5,0.6-0.7c0.2-0.2,0.5-0.3,0.8-0.4
	c0.3-0.1,0.7-0.1,1-0.1c0.2,0,0.4,0,0.5,0c0.2,0,0.4,0.1,0.5,0.1C21.7,5,21.8,5,22,5.1c0.1,0,0.3,0.1,0.3,0.1
	c0.1,0.1,0.2,0.1,0.2,0.2c0,0.1,0.1,0.2,0.1,0.3v0.4c0,0.2-0.1,0.3-0.2,0.3c-0.1,0-0.2,0-0.3-0.1c-0.5-0.2-1-0.3-1.5-0.3
	c-0.5,0-0.8,0.1-1.1,0.2c-0.2,0.2-0.4,0.4-0.4,0.7c0,0.2,0.1,0.4,0.2,0.6s0.5,0.3,0.9,0.4l1.1,0.4c0.6,0.2,1,0.4,1.2,0.8
	c0.2,0.3,0.4,0.7,0.4,1.1c0,0.3-0.1,0.7-0.2,0.9c-0.1,0.3-0.3,0.5-0.6,0.7c-0.2,0.2-0.5,0.3-0.9,0.4C21,12.3,20.6,12.3,20.2,12.3
	L20.2,12.3z M21.7,16.2c-2.6,1.9-6.4,3-9.7,3c-4.6,0-8.7-1.7-11.9-4.5c-0.2-0.2,0-0.5,0.3-0.4c3.4,2,7.6,3.2,11.9,3.2
	c2.9,0,6.1-0.6,9.1-1.9C21.8,15.4,22.1,15.9,21.7,16.2L21.7,16.2z M22.8,15c-0.3-0.4-2.2-0.2-3.1-0.1c-0.3,0-0.3-0.2-0.1-0.4
	c1.5-1.1,4-0.8,4.3-0.4c0.3,0.4-0.1,2.8-1.5,4c-0.2,0.2-0.4,0.1-0.3-0.2C22.4,17.2,23.1,15.4,22.8,15z"/>
</svg>
