<?xml version="1.0" encoding="utf-8"?>
<!-- Generator: Adobe Illustrator 25.4.1, SVG Export Plug-In . SVG Version: 6.00 Build 0)  -->
<svg version="1.1" id="Layer_1" xmlns="http://www.w3.org/2000/svg" xmlns:xlink="http://www.w3.org/1999/xlink" x="0px" y="0px"
	 viewBox="0 0 24 24" style="enable-background:new 0 0 24 24;" xml:space="preserve">
<path d="M15.6,0.6c0.2,0.2,0.3,0.6,0.5,1.2l4.4,14.3c-1.6-0.8-3.4-1.4-5.2-1.8l-2.8-9.6c0-0.2-0.2-0.3-0.4-0.3
	c-0.2,0-0.3,0.1-0.4,0.3l-2.8,9.6c-1.9,0.3-3.6,0.9-5.2,1.8L8,1.8h0c0.2-0.7,0.3-1,0.5-1.2c0.2-0.2,0.4-0.4,0.7-0.5
	C9.4,0,9.8,0,10.4,0h3.1c0.7,0,1,0,1.3,0.1C15.2,0.2,15.4,0.4,15.6,0.6z M16.1,16.9c-0.7,0.6-2.2,1-3.8,1c-2,0-3.7-0.6-4.2-1.5
	c-0.2,0.5-0.2,1-0.2,1.4c0,0-0.1,1.8,1.1,3c0-0.6,0.5-1.1,1.1-1.1c1.1,0,1.1,0.9,1.1,1.7c0,0,0,0,0,0.1c0,1.2,0.7,2.2,1.7,2.6
	c-0.2-0.3-0.2-0.7-0.2-1c0-1.1,0.7-1.5,1.4-2l0,0c0.6-0.4,1.3-0.8,1.7-1.7c0.2-0.4,0.4-1,0.4-1.5C16.2,17.5,16.2,17.2,16.1,16.9z"/>
</svg>
