<?xml version="1.0" encoding="utf-8"?>
<!-- Generator: Adobe Illustrator 25.4.1, SVG Export Plug-In . SVG Version: 6.00 Build 0)  -->
<svg version="1.1" id="Layer_1" xmlns="http://www.w3.org/2000/svg" xmlns:xlink="http://www.w3.org/1999/xlink" x="0px" y="0px"
	 viewBox="0 0 24 24" style="enable-background:new 0 0 24 24;" xml:space="preserve">
<style type="text/css">
	.st0{fill:#555555;}
</style>
<path class="st0" d="M6.5,14.3c1.3,2.5,4,4,6.7,3.5l-3.1,6C4.4,23,0,18,0,12c0-2.4,0.7-4.7,2-6.6L6.5,14.3z M18,1.6
	c2.1,1.2,3.7,3,4.7,5l-9.9-0.5C10,5.9,7.3,7.5,6.4,10.1L2.7,4.5C5,1.6,8.4,0,12,0C14,0,16.1,0.5,18,1.6z M16,12c0,2.2-1.8,4-4,4
	c-2.2,0-4-1.8-4-4c0-2.2,1.8-4,4-4C14.2,8,16,9.8,16,12z M18,22.4c-2.1,1.2-4.4,1.7-6.7,1.6l5.4-8.3c1.5-2.4,1.5-5.5-0.3-7.6
	l6.8-0.3C25.3,13.1,23.2,19.4,18,22.4L18,22.4z"/>
</svg>
