<?xml version="1.0" encoding="utf-8"?>
<!-- Generator: Adobe Illustrator 25.4.1, SVG Export Plug-In . SVG Version: 6.00 Build 0)  -->
<svg version="1.1" id="Layer_1" xmlns="http://www.w3.org/2000/svg" xmlns:xlink="http://www.w3.org/1999/xlink" x="0px" y="0px"
	 viewBox="0 0 24 24" style="enable-background:new 0 0 24 24;" xml:space="preserve">
<style type="text/css">
	.st0{fill:#092E20;}
</style>
<path class="st0" d="M9.6,10.8c0.3,0,0.6,0,0.9,0.1v4.3c-0.4,0.1-0.6,0.1-0.9,0.1c-1.4,0-2.1-0.8-2.1-2.2
	C7.5,11.6,8.3,10.8,9.6,10.8z M24,2.6v18.8c0,1.4-1.2,2.6-2.6,2.6H2.6C1.2,24,0,22.8,0,21.4V2.6C0,1.2,1.2,0,2.6,0h18.8
	C22.8,0,24,1.2,24,2.6z M9.7,17.5c1.1,0,2.1-0.1,3.5-0.4V4.7h-2.7v4.1c-0.4-0.1-0.7-0.1-1.2-0.1c-2.8,0-4.6,1.8-4.6,4.5
	C4.8,16,6.5,17.5,9.7,17.5z M17.5,8.8h-2.7v5.3c0,2.3-0.1,3.2-0.5,4c-0.4,0.7-0.9,1.2-2.1,1.8l2.5,1.2c1.2-0.6,1.8-1.1,2.2-2
	c0.5-0.9,0.6-1.9,0.6-4.1V8.8z M17.5,4.7h-2.7v2.7h2.7V4.7z"/>
</svg>
