<?xml version="1.0" encoding="utf-8"?>
<!-- Generator: Adobe Illustrator 25.4.1, SVG Export Plug-In . SVG Version: 6.00 Build 0)  -->
<svg version="1.1" id="Layer_1" xmlns="http://www.w3.org/2000/svg" xmlns:xlink="http://www.w3.org/1999/xlink" x="0px" y="0px"
	 viewBox="0 0 24 24" style="enable-background:new 0 0 24 24;" xml:space="preserve">
<style type="text/css">
	.st0{fill:#222222;}
</style>
<path class="st0" d="M0.2,13.9v-2.7h3.3v-0.2H0.2V8.7h3.5V8.5H0v5.6h3.7v-0.2H0.2L0.2,13.9z M6.7,10.1l-1.4,1.8L4,10.1H3.8L5.3,12 l-1.6,2.1h0.2l1.5-2l1.5,2h0.2L5.5,12l1.5-1.9L6.7,10.1L6.7,10.1z M7.5,15.5V13h0c0.1,0.4,0.3,0.7,0.6,0.9c0.3,0.2,0.6,0.3,1.1,0.3 c0.3,0,0.5-0.1,0.7-0.2c0.2-0.1,0.4-0.3,0.5-0.5c0.1-0.2,0.3-0.4,0.3-0.7c0.1-0.3,0.1-0.5,0.1-0.8c0-0.3,0-0.6-0.1-0.8 c-0.1-0.3-0.2-0.5-0.3-0.7c-0.1-0.2-0.3-0.3-0.5-0.4C9.7,10,9.4,10,9.2,10c-0.2,0-0.4,0-0.6,0.1c-0.2,0.1-0.3,0.1-0.5,0.3 c-0.1,0.1-0.3,0.2-0.4,0.4c-0.1,0.1-0.2,0.3-0.2,0.5h0v-1.1H7.4v5.4H7.5L7.5,15.5z M9.2,14c-0.5,0-0.9-0.2-1.2-0.5 c-0.3-0.3-0.4-0.8-0.4-1.4c0-0.3,0-0.5,0.1-0.7c0.1-0.2,0.2-0.4,0.3-0.6c0.1-0.2,0.3-0.3,0.5-0.4c0.2-0.1,0.4-0.2,0.7-0.2 c0.3,0,0.5,0.1,0.7,0.2c0.2,0.1,0.4,0.2,0.5,0.4c0.1,0.2,0.2,0.4,0.3,0.6c0.1,0.2,0.1,0.5,0.1,0.7c0,0.2,0,0.5-0.1,0.7 c-0.1,0.2-0.2,0.4-0.3,0.6c-0.1,0.2-0.3,0.3-0.5,0.5C9.7,14,9.4,14,9.2,14L9.2,14z M11.7,14.1v-2.3c0-0.2,0-0.4,0.1-0.6 c0.1-0.2,0.2-0.4,0.3-0.6c0.1-0.2,0.3-0.3,0.5-0.4c0.2-0.1,0.4-0.1,0.7-0.1V10c-0.2,0-0.4,0-0.6,0.1c-0.2,0.1-0.3,0.1-0.5,0.2 c-0.1,0.1-0.2,0.2-0.3,0.3c-0.1,0.1-0.1,0.3-0.2,0.4h0v-1h-0.2v4L11.7,14.1L11.7,14.1z M13.5,12.1h3.4c0-0.3,0-0.5-0.1-0.8 c-0.1-0.3-0.2-0.5-0.3-0.7c-0.1-0.2-0.3-0.4-0.6-0.5c-0.2-0.1-0.5-0.2-0.8-0.2c-0.2,0-0.4,0-0.7,0.1c-0.2,0.1-0.4,0.2-0.6,0.4 c-0.2,0.2-0.3,0.4-0.4,0.7c-0.1,0.3-0.1,0.6-0.1,0.9c0,0.3,0,0.6,0.1,0.8c0.1,0.3,0.2,0.5,0.3,0.7c0.1,0.2,0.3,0.3,0.5,0.4 c0.2,0.1,0.5,0.2,0.8,0.1c0.5,0,0.8-0.1,1.2-0.4c0.3-0.3,0.5-0.6,0.6-1.1h-0.2c-0.1,0.4-0.2,0.8-0.5,1c-0.3,0.2-0.6,0.3-1.1,0.3 c-0.3,0-0.5,0-0.7-0.1c-0.2-0.1-0.4-0.2-0.5-0.4c-0.1-0.2-0.2-0.4-0.3-0.6C13.6,12.6,13.5,12.4,13.5,12.1L13.5,12.1z M16.7,12h-3.2 c0-0.3,0.1-0.5,0.2-0.8c0.1-0.2,0.2-0.4,0.3-0.6c0.1-0.2,0.3-0.3,0.5-0.4c0.2-0.1,0.4-0.1,0.6-0.1c0.3,0,0.5,0,0.7,0.1 c0.2,0.1,0.4,0.2,0.5,0.4c0.1,0.2,0.2,0.4,0.3,0.6C16.7,11.5,16.7,11.7,16.7,12L16.7,12z M20.1,11.3h0.2c0-0.4-0.1-0.8-0.4-1 c-0.3-0.2-0.6-0.3-1.1-0.3c-0.2,0-0.5,0-0.6,0.1c-0.2,0.1-0.3,0.1-0.4,0.2c-0.1,0.1-0.2,0.2-0.2,0.3c0,0.1-0.1,0.2-0.1,0.3 c0,0.2,0,0.4,0.1,0.5c0.1,0.1,0.2,0.2,0.4,0.3c0.1,0.1,0.2,0.1,0.4,0.1c0.1,0,0.3,0.1,0.5,0.1c0.2,0,0.3,0.1,0.5,0.1 c0.2,0,0.3,0.1,0.4,0.2c0.1,0.1,0.2,0.2,0.3,0.3c0.1,0.1,0.1,0.3,0.1,0.4c0,0.2,0,0.3-0.1,0.4c-0.1,0.1-0.2,0.2-0.3,0.3 c-0.1,0.1-0.3,0.1-0.4,0.2c-0.2,0-0.3,0.1-0.4,0.1c-0.5,0-0.8-0.1-1.1-0.3c-0.3-0.2-0.4-0.5-0.4-1h-0.2c0,0.5,0.1,0.9,0.4,1.1 c0.3,0.2,0.7,0.4,1.2,0.4c0.2,0,0.3,0,0.5-0.1c0.2,0,0.3-0.1,0.5-0.2c0.1-0.1,0.3-0.2,0.3-0.3c0.1-0.1,0.1-0.3,0.1-0.5 c0-0.2,0-0.3-0.1-0.5c-0.1-0.1-0.2-0.2-0.3-0.3c-0.1-0.1-0.3-0.1-0.4-0.2c-0.2,0-0.3-0.1-0.5-0.1c-0.2-0.1-0.4-0.1-0.6-0.1 c-0.2,0-0.3-0.1-0.5-0.1c-0.1-0.1-0.2-0.1-0.3-0.2c-0.1-0.1-0.1-0.3-0.1-0.5c0,0,0-0.1,0-0.2c0-0.1,0.1-0.2,0.1-0.3 c0.1-0.1,0.2-0.2,0.4-0.3c0.2-0.1,0.4-0.1,0.7-0.1c0.2,0,0.4,0,0.5,0.1c0.2,0,0.3,0.1,0.4,0.2c0.1,0.1,0.2,0.2,0.3,0.3 C20.1,10.9,20.1,11.1,20.1,11.3L20.1,11.3z M23.7,11.3h0.2c0-0.4-0.1-0.8-0.4-1c-0.3-0.2-0.6-0.3-1.1-0.3c-0.2,0-0.5,0-0.6,0.1 c-0.2,0.1-0.3,0.1-0.4,0.2c-0.1,0.1-0.2,0.2-0.2,0.3c0,0.1-0.1,0.2-0.1,0.3c0,0.2,0,0.4,0.1,0.5c0.1,0.1,0.2,0.2,0.4,0.3 c0.1,0.1,0.2,0.1,0.4,0.1c0.1,0,0.3,0.1,0.5,0.1c0.2,0,0.3,0.1,0.5,0.1c0.2,0,0.3,0.1,0.4,0.2c0.1,0.1,0.2,0.2,0.3,0.3 c0.1,0.1,0.1,0.3,0.1,0.4c0,0.2,0,0.3-0.1,0.4c-0.1,0.1-0.2,0.2-0.3,0.3C23.3,13.9,23.2,14,23,14c-0.2,0-0.3,0.1-0.4,0.1 c-0.5,0-0.8-0.1-1.1-0.3c-0.3-0.2-0.4-0.5-0.4-1h-0.2c0,0.5,0.1,0.9,0.4,1.1c0.3,0.2,0.7,0.4,1.2,0.4c0.2,0,0.3,0,0.5-0.1 c0.2,0,0.3-0.1,0.5-0.2c0.1-0.1,0.3-0.2,0.3-0.3c0.1-0.1,0.1-0.3,0.1-0.5c0-0.2,0-0.3-0.1-0.5c-0.1-0.1-0.2-0.2-0.3-0.3 c-0.1-0.1-0.3-0.1-0.4-0.2c-0.2,0-0.3-0.1-0.5-0.1c-0.2-0.1-0.4-0.1-0.6-0.1c-0.2,0-0.3-0.1-0.5-0.1c-0.1-0.1-0.2-0.1-0.3-0.2 c-0.1-0.1-0.1-0.3-0.1-0.5c0,0,0-0.1,0-0.2c0-0.1,0.1-0.2,0.1-0.3c0.1-0.1,0.2-0.2,0.4-0.3c0.2-0.1,0.4-0.1,0.7-0.1 c0.2,0,0.4,0,0.5,0.1c0.2,0,0.3,0.1,0.4,0.2c0.1,0.1,0.2,0.2,0.3,0.3C23.7,10.9,23.7,11.1,23.7,11.3L23.7,11.3z"/>
</svg>
