<?xml version="1.0" encoding="utf-8"?>
<!-- Generator: Adobe Illustrator 25.4.1, SVG Export Plug-In . SVG Version: 6.00 Build 0)  -->
<svg version="1.1" id="Layer_1" xmlns="http://www.w3.org/2000/svg" xmlns:xlink="http://www.w3.org/1999/xlink" x="0px" y="0px"
	 viewBox="0 0 24 24" style="enable-background:new 0 0 24 24;" xml:space="preserve">
<path d="M15.3,7.7l0.8,0l2.1-2.1l0.1-0.9c-1.7-1.5-3.8-2.4-6.2-2.4c-4.3,0-8,2.9-9.1,6.9c0.2-0.2,0.7,0,0.7,0l4.2-0.7
	c0,0,0.2-0.4,0.3-0.3c1-1.1,2.4-1.7,3.9-1.7C13.2,6.5,14.4,7,15.3,7.7L15.3,7.7z M21.1,9.3c-0.5-1.8-1.5-3.4-2.8-4.6l-3,3
	c1.2,1,1.9,2.4,1.9,4.1v0.5c1.4,0,2.6,1.2,2.6,2.6c0,1.4-1.2,2.6-2.6,2.6H12L11.5,18v3.1l0.5,0.5h5.2c3.7,0,6.8-3,6.8-6.8
	C24,12.6,22.8,10.5,21.1,9.3L21.1,9.3z M6.8,21.7H12v-4.2H6.8c-0.4,0-0.7-0.1-1.1-0.2L5,17.5l-2.1,2.1l-0.2,0.7
	C3.9,21.2,5.3,21.7,6.8,21.7L6.8,21.7z M6.8,8.1C3,8.1,0,11.1,0,14.9c0,2.2,1.1,4.2,2.7,5.4l3-3c-0.9-0.4-1.5-1.4-1.5-2.4
	c0-1.4,1.2-2.6,2.6-2.6c1.1,0,2,0.6,2.4,1.5l3-3C10.9,9.1,9,8.1,6.8,8.1L6.8,8.1z"/>
</svg>
