<?xml version="1.0" encoding="utf-8"?>
<!-- Generator: Adobe Illustrator 25.4.1, SVG Export Plug-In . SVG Version: 6.00 Build 0)  -->
<svg version="1.1" id="Layer_1" xmlns="http://www.w3.org/2000/svg" xmlns:xlink="http://www.w3.org/1999/xlink" x="0px" y="0px"
	 viewBox="0 0 24 24" style="enable-background:new 0 0 24 24;" xml:space="preserve">
<style type="text/css">
	.st0{fill:#330000;}
</style>
<path class="st0" d="M10.8,11.5c0.1,0.3,0.2,0.5,0.2,0.7H8.5c0.1-0.4,0.3-0.9,0.4-1.4c0.2-0.5,0.3-1,0.5-1.5C9.5,9,9.6,8.5,9.7,8.1
	h0c0.1,0.2,0.1,0.5,0.2,0.8c0.1,0.3,0.2,0.6,0.3,0.9c0.1,0.3,0.2,0.6,0.3,0.9C10.6,11,10.7,11.3,10.8,11.5z M24,4.5v14.9
	c0,2.3-1.9,4.2-4.2,4.2H4.2c-2.3,0-4.2-1.9-4.2-4.2V4.5c0-2.3,1.9-4.2,4.2-4.2h15.5C22.1,0.3,24,2.2,24,4.5z M14.8,16.6L11.1,6.3
	c0,0,0-0.1-0.1-0.1H8.4c-0.1,0-0.1,0.1-0.1,0.1c0,0.2,0,0.4-0.1,0.7c0,0.1-0.1,0.2-0.1,0.3l-3.2,9.3c0,0.1,0,0.2,0.1,0.2h1.9
	c0.1,0,0.2,0,0.2-0.1l0.8-2.4h3.7l0.8,2.4c0,0.1,0.1,0.1,0.2,0.1h2.1C14.8,16.8,14.8,16.7,14.8,16.6z M18.1,9c0-0.1,0-0.1-0.1-0.1
	h-2c-0.1,0-0.1,0-0.1,0.1v7.7c0,0.1,0,0.2,0.2,0.2h2c0.1,0,0.1-0.1,0.1-0.2V9z M18.3,6.7c0-0.3-0.1-0.6-0.3-0.9
	c-0.2-0.2-0.5-0.4-0.9-0.4c-0.3,0-0.7,0.1-0.9,0.4c-0.2,0.2-0.4,0.5-0.4,0.9c0,0.3,0.1,0.7,0.3,0.9C16.3,7.9,16.7,8,17,8
	c0.3,0,0.7-0.1,0.9-0.3C18.2,7.4,18.3,7.1,18.3,6.7z"/>
</svg>
