<?xml version="1.0" encoding="utf-8"?>
<!-- Generator: Adobe Illustrator 25.4.1, SVG Export Plug-In . SVG Version: 6.00 Build 0)  -->
<svg version="1.1" id="Layer_1" xmlns="http://www.w3.org/2000/svg" xmlns:xlink="http://www.w3.org/1999/xlink" x="0px" y="0px"
	 viewBox="0 0 24 24" style="enable-background:new 0 0 24 24;" xml:space="preserve">
<path d="M0,0v24h24V0H0z M12.6,20.6c-0.4,0.7-1,1.2-1.8,1.4c-1.2,0.3-2.4,0.1-3.2-0.4c-0.6-0.4-1-0.9-1.3-1.5
	c0.6-0.4,1.2-0.7,1.8-1.1c0,0,0.1,0.1,0.1,0.2c0.2,0.4,0.4,0.7,0.8,0.9c0.4,0.1,1.2,0.2,1.6-0.5c0.2-0.3,0.1-1.5,0.1-2.7
	c0-1.9,0-3.9,0-5.8H13l0,0c0,2.1,0,4.1,0,6.2C13.1,18.5,13.2,19.6,12.6,20.6z M22,19.9c-0.8,2.7-5.1,2.8-6.9,1
	c-0.4-0.4-0.6-0.6-0.8-1.1c0.9-0.5,0.9-0.5,1.8-1.1c0.5,0.8,0.9,1.2,1.8,1.3c1.1,0.1,2.2-0.2,2-1.4c-0.3-1-2.3-1.2-3.6-2.2
	c-1.4-0.9-1.7-3.2-0.6-4.5c0.4-0.5,1-0.8,1.7-1c0.2,0,0.5-0.1,0.7-0.1c1.4,0,2.2,0.3,2.8,1c0.2,0.2,0.3,0.4,0.6,0.8
	c-0.7,0.5-0.7,0.5-1.8,1.1c-0.2-0.5-0.6-0.8-1-0.9c-0.6-0.2-1.4,0-1.5,0.7c-0.1,0.2,0,0.4,0,0.7c0.2,0.6,1.1,0.8,1.8,1.1
	c2.1,0.9,2.8,1.8,3,2.9C22.2,19.2,22,19.8,22,19.9z"/>
</svg>
