<?xml version="1.0" encoding="utf-8"?>
<!-- Generator: Adobe Illustrator 25.4.1, SVG Export Plug-In . SVG Version: 6.00 Build 0)  -->
<svg version="1.1" id="Layer_1" xmlns="http://www.w3.org/2000/svg" xmlns:xlink="http://www.w3.org/1999/xlink" x="0px" y="0px"
	 viewBox="0 0 24 24" style="enable-background:new 0 0 24 24;" xml:space="preserve">
<style type="text/css">
	.st0{fill:#00546B;}
</style>
<path class="st0" d="M22.1,18.4c-1.3,0-2.3,0.1-3.2,0.5c-0.2,0.1-0.6,0.1-0.7,0.4c0.1,0.1,0.1,0.3,0.3,0.5c0.2,0.3,0.5,0.8,0.8,1 c0.3,0.3,0.7,0.5,1,0.8c0.6,0.4,1.4,0.6,2,1c0.4,0.2,0.7,0.5,1.1,0.8c0.2,0.1,0.3,0.3,0.5,0.4v0c-0.1-0.1-0.1-0.4-0.3-0.5 c-0.2-0.2-0.3-0.3-0.5-0.5c-0.5-0.6-1.1-1.2-1.7-1.6c-0.5-0.4-1.7-0.8-1.9-1.5c0,0,0,0,0,0c0.4,0,0.8-0.2,1.1-0.3 c0.6-0.1,1.1-0.1,1.6-0.3c0.3-0.1,0.5-0.1,0.8-0.2v-0.1c-0.3-0.3-0.5-0.7-0.8-1c-0.8-0.7-1.7-1.4-2.7-2c-0.5-0.3-1.2-0.5-1.7-0.8 c-0.2-0.1-0.5-0.1-0.6-0.3c-0.3-0.4-0.5-0.8-0.7-1.3c-0.5-0.9-0.9-1.9-1.3-2.8c-0.3-0.6-0.5-1.3-0.8-1.9C12.8,5.9,11,4.2,8.2,2.5 C7.6,2.2,6.9,2.1,6.1,1.9c-0.4,0-0.8,0-1.2-0.1C4.6,1.7,4.3,1.4,4.1,1.2c-0.9-0.6-3.3-1.9-4-0.2c-0.4,1.1,0.7,2.1,1,2.6 C1.4,4.1,1.8,4.5,2,4.9c0.1,0.3,0.1,0.6,0.3,0.9C2.5,6.5,2.7,7.3,3.1,8c0.2,0.3,0.4,0.7,0.6,1C3.8,9.2,4,9.3,4.1,9.5 c-0.2,0.3-0.2,0.8-0.4,1.2c-0.6,1.8-0.4,4.1,0.5,5.5c0.3,0.4,0.9,1.3,1.7,1c0.7-0.3,0.6-1.2,0.8-2c0-0.2,0-0.3,0.1-0.5v0 c0.2,0.5,0.5,0.9,0.7,1.4c0.5,0.8,1.4,1.6,2.1,2.2c0.4,0.3,0.7,0.8,1.2,1v0h0c-0.1-0.1-0.2-0.2-0.4-0.3c-0.3-0.3-0.6-0.7-0.8-1 c-0.7-0.9-1.3-1.9-1.8-3c-0.3-0.5-0.5-1.1-0.7-1.6c-0.1-0.2-0.1-0.5-0.3-0.6c-0.2,0.4-0.6,0.7-0.8,1.1c-0.3,0.7-0.3,1.6-0.5,2.5 c-0.1,0,0,0-0.1,0c-0.5-0.1-0.7-0.7-0.9-1.1c-0.5-1.2-0.6-3-0.1-4.4C4.5,10.6,5,9.5,4.8,9.2C4.7,8.9,4.4,8.7,4.2,8.4 C4,8.1,3.7,7.7,3.6,7.4C3.2,6.5,3,5.5,2.6,4.6C2.4,4.1,2,3.7,1.8,3.3C1.5,2.9,1.1,2.5,0.9,2C0.8,1.8,0.7,1.5,0.8,1.4 c0-0.1,0.1-0.2,0.2-0.2c0.2-0.2,0.8,0,1,0.1c0.6,0.2,1.1,0.5,1.6,0.8c0.2,0.2,0.5,0.5,0.8,0.6h0.3c0.5,0.1,1.1,0,1.6,0.2 C7.3,3.1,8,3.5,8.7,4c2.1,1.4,3.9,3.3,5.1,5.6c0.2,0.4,0.3,0.7,0.5,1.1c0.3,0.8,0.8,1.6,1.1,2.4c0.3,0.8,0.7,1.6,1.2,2.2 c0.2,0.3,1.2,0.5,1.7,0.7c0.3,0.1,0.8,0.3,1.1,0.5c0.6,0.3,1.1,0.7,1.6,1.1C21.2,17.7,22.1,18.1,22.1,18.4L22.1,18.4z M5.5,4.3 c-0.3,0-0.5,0-0.7,0.1v0h0C5,4.6,5.2,4.8,5.3,5c0.1,0.3,0.2,0.5,0.4,0.8c0,0,0,0,0,0C6,5.6,6.1,5.4,6.1,5C6,4.9,6,4.7,5.9,4.6 C5.8,4.5,5.6,4.4,5.5,4.3L5.5,4.3z"/>
</svg>
