<?xml version="1.0" encoding="utf-8"?>
<!-- Generator: Adobe Illustrator 25.4.1, SVG Export Plug-In . SVG Version: 6.00 Build 0)  -->
<svg version="1.1" id="Layer_1" xmlns="http://www.w3.org/2000/svg" xmlns:xlink="http://www.w3.org/1999/xlink" x="0px" y="0px"
	 viewBox="0 0 24 24" style="enable-background:new 0 0 24 24;" xml:space="preserve">
<style type="text/css">
	.st0{fill:#8CC84B;}
</style>
<path class="st0" d="M22.9,6.9v10.2c0,0.7-0.4,1.3-1,1.6c-3,1.7-6,3.4-8.9,5c-0.6,0.3-1.4,0.3-2-0.1c-0.9-0.5-1.8-1-2.7-1.6 C8.1,22,7.9,22,7.8,21.8c0.1-0.2,0.3-0.2,0.5-0.2C8.6,21.4,9,21.2,9.3,21c0.1-0.1,0.2,0,0.3,0c0.8,0.4,1.5,0.9,2.3,1.3 c0.2,0.1,0.3,0,0.5-0.1c2.9-1.7,5.9-3.3,8.8-5c0.1-0.1,0.2-0.2,0.2-0.3c0-3.4,0-6.7,0-10.1c0-0.1-0.1-0.3-0.2-0.3 c-3-1.7-5.9-3.3-8.9-5c-0.1-0.1-0.2-0.1-0.3,0c-3,1.7-5.9,3.4-8.9,5C2.8,6.7,2.7,6.8,2.7,7c0,3.4,0,6.7,0,10.1 c0,0.1,0.1,0.2,0.2,0.3c0.8,0.4,1.6,0.9,2.4,1.3c0.4,0.2,1,0.4,1.5,0.2c0.4-0.2,0.7-0.6,0.7-1.1c0-3.3,0-6.7,0-10 c0-0.1,0.1-0.3,0.3-0.3c0.4,0,0.8,0,1.1,0c0.2,0,0.3,0.2,0.2,0.3c0,3.4,0,6.7,0,10.1c0,0.9-0.4,1.9-1.2,2.3c-1,0.5-2.3,0.4-3.3-0.1 c-0.9-0.4-1.7-0.9-2.6-1.4c-0.6-0.3-1-1-1-1.6V6.9c0-0.7,0.4-1.3,1-1.6c3-1.7,6-3.4,8.9-5c0.6-0.3,1.4-0.3,2,0c3,1.7,6,3.4,9,5.1 C22.5,5.6,22.9,6.3,22.9,6.9z M17.1,14.9c-0.6,0.5-1.4,0.5-2.2,0.5c-0.9,0-1.9,0-2.6-0.5c-0.4-0.3-0.6-0.8-0.6-1.2 c0-0.1-0.1-0.3-0.3-0.3c-0.4,0-0.8,0-1.1,0c-0.1,0-0.3,0.1-0.3,0.2c0,0.8,0.3,1.7,0.9,2.2c0.7,0.6,1.7,0.9,2.7,1c1,0.1,2,0.1,3-0.1 c0.7-0.2,1.5-0.5,2-1.1c0.6-0.7,0.8-1.8,0.5-2.7c-0.2-0.7-0.8-1.1-1.5-1.3c-1.5-0.5-3.2-0.5-4.8-0.9c-0.3-0.1-0.6-0.2-0.7-0.5 c-0.1-0.4,0-0.9,0.3-1.1c0.5-0.3,1.1-0.4,1.6-0.4c0.8,0,1.6,0,2.3,0.3c0.5,0.2,0.7,0.7,0.8,1.2c0,0.1,0.1,0.3,0.3,0.3 c0.4,0,0.8,0,1.1,0c0.1,0,0.3-0.1,0.3-0.2c0-1-0.5-2-1.4-2.5c-1.2-0.6-2.6-0.7-3.9-0.6l0,0c-0.9,0.1-1.9,0.4-2.6,1 c-0.7,0.7-0.9,1.8-0.5,2.7c0.2,0.6,0.8,1.1,1.5,1.3c1.5,0.6,3.2,0.4,4.8,0.9c0.3,0.1,0.7,0.3,0.7,0.6C17.5,14.2,17.4,14.7,17.1,14.9 z"/>
</svg>
