<?xml version="1.0" encoding="utf-8"?>
<!-- Generator: Adobe Illustrator 25.4.1, SVG Export Plug-In . SVG Version: 6.00 Build 0)  -->
<svg version="1.1" id="Layer_1" xmlns="http://www.w3.org/2000/svg" xmlns:xlink="http://www.w3.org/1999/xlink" x="0px" y="0px"
	 viewBox="0 0 24 24" style="enable-background:new 0 0 24 24;" xml:space="preserve">
<style type="text/css">
	.st0{fill:#001E36;}
</style>
<path class="st0" d="M19.8,0.3H4.2C1.9,0.3,0,2.2,0,4.5v14.9c0,2.3,1.9,4.2,4.2,4.2h15.5c2.3,0,4.2-1.9,4.2-4.2V4.5
	C24,2.2,22.1,0.3,19.8,0.3z M12.4,12c-0.4,0.6-1,1-1.6,1.2c-0.7,0.2-1.4,0.3-2.2,0.3c-0.2,0-0.4,0-0.5,0s-0.2,0-0.4,0v3.2
	c0,0.1,0,0.1-0.1,0.1c0,0,0,0,0,0H5.5c-0.1,0-0.1,0-0.1-0.1V6.4c0-0.1,0-0.1,0.1-0.1c0.2,0,0.3,0,0.6,0c0.2,0,0.5,0,0.8,0
	c0.3,0,0.6,0,0.9,0s0.6,0,0.9,0c0.8,0,1.5,0.1,2.1,0.3c0.5,0.2,1,0.5,1.3,0.8c0.3,0.3,0.6,0.7,0.7,1.1C12.9,8.9,13,9.4,13,9.8
	C13,10.7,12.8,11.4,12.4,12z M19.5,15.8c-0.3,0.4-0.7,0.7-1.1,0.9c-0.5,0.2-1.1,0.3-1.8,0.3c-0.5,0-0.9,0-1.4-0.1
	c-0.3-0.1-0.7-0.2-1-0.3c-0.1,0-0.1-0.1-0.1-0.2v-1.7c0,0,0-0.1,0-0.1c0,0,0.1,0,0.1,0c0.4,0.2,0.8,0.4,1.2,0.5
	c0.4,0.1,0.8,0.1,1.2,0.1c0.4,0,0.6,0,0.8-0.1c0.2-0.1,0.3-0.2,0.3-0.4c0-0.1-0.1-0.3-0.2-0.4c-0.2-0.1-0.5-0.3-1-0.5
	c-0.5-0.2-1-0.4-1.4-0.7c-0.3-0.2-0.6-0.5-0.8-0.9c-0.2-0.3-0.2-0.7-0.2-1c0-0.4,0.1-0.8,0.3-1.2c0.2-0.4,0.6-0.7,1-0.9
	c0.5-0.2,1.1-0.4,1.8-0.4c0.4,0,0.8,0,1.2,0.1c0.3,0,0.6,0.1,0.9,0.2c0,0,0.1,0,0.1,0.1c0,0,0,0.1,0,0.1v1.6c0,0,0,0.1,0,0.1
	c-0.1,0-0.1,0-0.2,0c-0.3-0.2-0.6-0.3-1-0.3c-0.4-0.1-0.7-0.1-1.1-0.1c-0.2,0-0.4,0-0.6,0.1c-0.1,0-0.2,0.1-0.3,0.2
	c-0.1,0.1-0.1,0.2-0.1,0.3s0,0.2,0.1,0.3c0.1,0.1,0.2,0.2,0.3,0.3c0.2,0.1,0.5,0.2,0.7,0.3c0.5,0.2,1.1,0.4,1.5,0.7
	c0.3,0.2,0.6,0.5,0.8,0.8c0.2,0.3,0.2,0.7,0.2,1C19.8,15,19.7,15.5,19.5,15.8z M10.5,9c0.2,0.3,0.2,0.6,0.2,0.9c0,0.4-0.1,0.8-0.3,1
	c-0.2,0.2-0.5,0.4-0.8,0.5c-0.4,0.1-0.8,0.2-1.2,0.2H8c-0.1,0-0.2,0-0.4,0V8.2c0.1,0,0.2,0,0.4,0c0.2,0,0.4,0,0.7,0
	c0.4,0,0.8,0.1,1.2,0.2C10.1,8.5,10.4,8.7,10.5,9z"/>
</svg>
