<?xml version="1.0" encoding="utf-8"?>
<!-- Generator: Adobe Illustrator 25.4.1, SVG Export Plug-In . SVG Version: 6.00 Build 0)  -->
<svg version="1.1" id="Layer_1" xmlns="http://www.w3.org/2000/svg" xmlns:xlink="http://www.w3.org/1999/xlink" x="0px" y="0px"
	 viewBox="0 0 24 24" style="enable-background:new 0 0 24 24;" xml:space="preserve">
<style type="text/css">
	.st0{fill-rule:evenodd;clip-rule:evenodd;fill:#8993BE;}
</style>
<path class="st0" d="M19.1,11c-0.1,1.4-0.7,1.6-1.5,1.7h-1h0l0.4-2.5h1.1C18.7,10.3,19.1,10.5,19.1,11z M7.1,10.3H6l-0.4,2.5l0,0h1 C7.3,12.7,8,12.4,8.1,11C8.1,10.5,7.6,10.3,7.1,10.3z M24,12c0,3.4-5.4,6.2-12,6.2S0,15.4,0,12s5.4-6.2,12-6.2S24,8.6,24,12z M9.7,10.9c0-1.2-0.7-1.8-2-1.9h-3l-1.3,6.7h1.6L5.3,14h1.5C8.1,14.1,9.7,12.9,9.7,10.9z M13.4,10.9l-0.6,3h1.6l0.6-3.4 c0.2-0.8-0.3-1.5-1.6-1.6h-1.5l0.3-1.7h-1.6L9.4,14H11l0.7-3.7h1.2C13.5,10.3,13.5,10.5,13.4,10.9z M20.7,10.9c0-1.2-0.7-1.8-2-1.9 h-3l-1.3,6.7h1.6l0.3-1.7h1.5C19.2,14.1,20.7,12.9,20.7,10.9z"/>
</svg>
