<?xml version="1.0" encoding="utf-8"?>
<!-- Generator: Adobe Illustrator 25.4.1, SVG Export Plug-In . SVG Version: 6.00 Build 0)  -->
<svg version="1.1" id="Layer_1" xmlns="http://www.w3.org/2000/svg" xmlns:xlink="http://www.w3.org/1999/xlink" x="0px" y="0px"
	 viewBox="0 0 24 24" style="enable-background:new 0 0 24 24;" xml:space="preserve">
<path d="M24,14.3c0,0.2-0.3,0.5-0.9,0.8c-1.3,0.7-7.9,3.4-9.3,4.1c-1.4,0.7-2.2,0.7-3.3,0.2c-1.1-0.5-8.2-3.4-9.4-4
	c-0.6-0.3-1-0.6-1-0.8v2.4c0,0.2,0.3,0.5,1,0.8c1.3,0.6,8.3,3.5,9.4,4c1.1,0.5,1.9,0.5,3.3-0.2c1.4-0.7,8-3.5,9.3-4.1
	c0.7-0.3,0.9-0.6,0.9-0.8C24,16.5,24,14.3,24,14.3C24,14.3,24,14.3,24,14.3L24,14.3z M24,10.4c0,0.2-0.3,0.5-0.9,0.8
	c-1.3,0.7-7.9,3.4-9.3,4.1c-1.4,0.7-2.2,0.7-3.3,0.2c-1.1-0.5-8.2-3.4-9.4-4c-0.6-0.3-1-0.6-1-0.8v2.4c0,0.2,0.3,0.5,1,0.8
	c1.3,0.6,8.3,3.5,9.4,4c1.1,0.5,1.9,0.5,3.3-0.2c1.4-0.7,8-3.5,9.3-4.1c0.7-0.3,0.9-0.6,0.9-0.8C24,12.6,24,10.4,24,10.4
	C24,10.4,24,10.4,24,10.4z M24,6.3C24,6,23.7,5.8,23,5.6c-1.2-0.5-7.8-3.1-9.1-3.5c-1.3-0.5-1.8-0.4-3.3,0.1
	C9.2,2.7,2.2,5.4,0.9,5.9C0.3,6.2,0,6.4,0,6.6v2.4c0,0.2,0.3,0.5,1,0.8c1.3,0.6,8.3,3.5,9.4,4c1.1,0.5,1.9,0.5,3.3-0.2
	c1.4-0.7,8-3.5,9.3-4.1C23.7,9.2,24,8.9,24,8.7C24,8.4,24,6.3,24,6.3L24,6.3z M8.6,8.6l5.6-0.9l-1.7,2.5L8.6,8.6z M20.9,6.4
	l-3.6,1.4L14,6.5l3.6-1.4L20.9,6.4z M11.2,4l-0.5-1l1.7,0.7L14,3.1l-0.4,1l1.6,0.6L13.1,5l-0.5,1.1l-0.7-1.3L9.4,4.6L11.2,4z
	 M7.1,5.4c1.6,0,3,0.5,3,1.1c0,0.6-1.3,1.2-3,1.2s-3-0.5-3-1.2C4.1,5.9,5.5,5.4,7.1,5.4z"/>
</svg>
