<?xml version="1.0" encoding="utf-8"?>
<!-- Generator: Adobe Illustrator 25.4.1, SVG Export Plug-In . SVG Version: 6.00 Build 0)  -->
<svg version="1.1" id="Layer_1" xmlns="http://www.w3.org/2000/svg" xmlns:xlink="http://www.w3.org/1999/xlink" x="0px" y="0px"
	 viewBox="0 0 24 24" style="enable-background:new 0 0 24 24;" xml:space="preserve">
<style type="text/css">
	.st0{fill:#636466;}
</style>
<path class="st0" d="M3.9,10.8c0,0.4-0.3,0.7-0.7,0.7c-0.3,0-0.5,0.1-0.8,0.2C2.2,11.8,2,12,1.9,12.3c-0.3,0.4-0.5,0.9-0.5,1.1v2.4
	c0,0.4-0.3,0.7-0.7,0.7c-0.4,0-0.7-0.3-0.7-0.7v-5c0-0.4,0.3-0.7,0.7-0.7c0.4,0,0.7,0.3,0.7,0.7v0.1c0.1-0.1,0.2-0.2,0.3-0.3
	c0.4-0.3,1-0.5,1.6-0.5C3.6,10.1,3.9,10.4,3.9,10.8z M3.5,13.3c0-1.7,1.3-3.1,3.1-3.1c1.6,0,2.9,1.2,3,2.9v0.1c0,0,0,0.1,0,0.1
	c0,0.3-0.3,0.5-0.7,0.5h-4C5,14,5.1,14.3,5.4,14.5c0.3,0.3,0.8,0.5,1.2,0.6c0.5,0,1-0.1,1.3-0.3c0.3-0.3,0.8-0.2,0.9,0
	c0.2,0.2,0.3,0.6,0,0.8c-0.6,0.6-1.4,0.8-2.2,0.8C4.8,16.4,3.5,15,3.5,13.3L3.5,13.3z M4.9,12.6h3.6c-0.1-0.5-0.8-1.2-1.9-1.3
	C5.5,11.4,5,12.1,4.9,12.6L4.9,12.6z M16,15.7c0,0.4-0.3,0.7-0.7,0.7c-0.3,0-0.6-0.2-0.7-0.5c-0.5,0.3-1.1,0.5-1.7,0.5
	c-1.7,0-3.1-1.4-3.1-3.1c0-1.7,1.4-3.2,3.1-3.2c0.6,0,1.2,0.2,1.7,0.5V8.3c0-0.4,0.3-0.7,0.7-0.7c0.4,0,0.7,0.3,0.7,0.7L16,15.7
	L16,15.7z M12.9,11.5c-0.5,0-0.9,0.2-1.2,0.5c-0.3,0.3-0.5,0.8-0.5,1.3c0,0.5,0.2,0.9,0.5,1.2c0.3,0.3,0.7,0.5,1.2,0.5
	c0.5,0,0.9-0.2,1.2-0.5c0.3-0.3,0.5-0.8,0.5-1.2c0-0.5-0.2-1-0.5-1.3C13.8,11.7,13.4,11.5,12.9,11.5z M18.4,8.5
	c0,0.4-0.3,0.7-0.7,0.7c-0.4,0-0.7-0.3-0.7-0.7V8.3c0-0.4,0.3-0.7,0.7-0.7c0,0,0,0,0,0c0.4,0,0.7,0.3,0.7,0.7V8.5z M18.4,10.8v4.9
	c0,0.4-0.3,0.7-0.7,0.7c-0.4,0-0.7-0.3-0.7-0.7c0,0,0,0,0,0v-4.9c0-0.4,0.3-0.7,0.7-0.7C18.1,10.1,18.4,10.4,18.4,10.8L18.4,10.8z
	 M19.3,14.6c0.2-0.3,0.7-0.3,0.9-0.1c0.3,0.3,0.9,0.6,1.4,0.6c0.3,0,0.7-0.1,0.9-0.2c0.2-0.2,0.2-0.3,0.2-0.4c0-0.1,0-0.1,0-0.1
	c0,0-0.1-0.1-0.2-0.2c-0.2-0.1-0.6-0.3-1-0.4h0c-0.4-0.1-0.8-0.2-1.1-0.3c-0.3-0.2-0.6-0.4-0.9-0.7c-0.1-0.2-0.2-0.5-0.2-0.8
	c0-0.6,0.3-1.1,0.7-1.4c0.4-0.3,1-0.5,1.5-0.5c0.9,0,1.5,0.4,1.9,0.7c0.3,0.2,0.4,0.6,0.2,0.9c-0.2,0.3-0.6,0.4-0.9,0.2
	c-0.4-0.3-0.8-0.5-1.2-0.5c-0.3,0-0.6,0.1-0.8,0.2c-0.2,0.1-0.2,0.2-0.2,0.3c0,0.1,0,0.1,0,0.1c0,0,0.1,0.1,0.1,0.1
	c0.2,0.1,0.5,0.2,0.9,0.3l0,0h0c0.4,0.1,0.8,0.2,1.2,0.4c0.3,0.2,0.7,0.4,0.9,0.7c0.2,0.3,0.2,0.5,0.2,0.8c0,0.6-0.3,1.1-0.8,1.5
	c-0.5,0.3-1,0.5-1.6,0.5c-1,0-1.7-0.5-2.2-0.9C19.1,15.3,19,14.9,19.3,14.6L19.3,14.6z"/>
</svg>
