<?xml version="1.0" encoding="utf-8"?>
<!-- Generator: Adobe Illustrator 25.4.1, SVG Export Plug-In . SVG Version: 6.00 Build 0)  -->
<svg version="1.1" id="Layer_1" xmlns="http://www.w3.org/2000/svg" xmlns:xlink="http://www.w3.org/1999/xlink" x="0px" y="0px"
	 viewBox="0 0 24 24" style="enable-background:new 0 0 24 24;" xml:space="preserve">
<style type="text/css">
	.st0{fill:#764ABC;}
</style>
<path class="st0" d="M16.6,16.5c0.9-0.1,1.6-0.9,1.5-1.8c0-0.9-0.8-1.6-1.7-1.6h-0.1c-0.9,0-1.7,0.8-1.6,1.8c0,0.5,0.2,0.9,0.5,1.1 c-1,2-2.6,3.5-5,4.8c-1.6,0.9-3.3,1.2-5,0.9c-1.4-0.2-2.4-0.8-3.1-1.8c-1-1.5-1.1-3.1-0.2-4.7c0.6-1.2,1.5-2,2.1-2.4 c-0.1-0.4-0.3-1.1-0.4-1.6c-4.4,3.2-4,7.5-2.6,9.6c1,1.5,3.1,2.5,5.3,2.5c0.6,0,1.2-0.1,1.8-0.2C12,22.3,14.9,20,16.6,16.5 L16.6,16.5z M22,12.7c-2.3-2.7-5.7-4.2-9.7-4.2h-0.5C11.6,8,11,7.6,10.4,7.6h-0.1c-0.9,0-1.7,0.8-1.6,1.8c0,0.9,0.8,1.6,1.7,1.6h0.1 c0.7,0,1.3-0.5,1.5-1h0.5c2.3,0,4.5,0.7,6.5,2c1.5,1,2.6,2.3,3.2,3.9c0.5,1.3,0.5,2.5-0.1,3.6C21.3,21.1,19.9,22,18,22 c-1.2,0-2.4-0.4-3-0.6c-0.3,0.3-0.9,0.8-1.4,1.1c1.3,0.6,2.7,0.9,3.9,0.9c2.9,0,5.1-1.6,5.9-3.2C24.4,18.4,24.3,15.3,22,12.7 L22,12.7z M6.5,17c0,0.9,0.8,1.6,1.7,1.6h0.1c0.9,0,1.7-0.8,1.6-1.8c0-0.9-0.8-1.6-1.7-1.6H8.1c-0.1,0-0.2,0-0.2,0 C6.7,13.2,6.2,11,6.3,8.5c0.1-1.8,0.7-3.4,1.8-4.7c0.9-1.1,2.6-1.7,3.8-1.7c3.2-0.1,4.6,4,4.7,5.6C17,7.8,17.7,8,18.1,8.1 c-0.4-4.9-3.4-7.5-6.4-7.5c-2.7,0-5.3,2-6.3,4.9C4.1,9.4,5,13.2,6.7,16.2C6.6,16.4,6.5,16.7,6.5,17L6.5,17z"/>
</svg>
