<?xml version="1.0" encoding="utf-8"?>
<!-- Generator: Adobe Illustrator 25.4.1, SVG Export Plug-In . SVG Version: 6.00 Build 0)  -->
<svg version="1.1" id="Layer_1" xmlns="http://www.w3.org/2000/svg" xmlns:xlink="http://www.w3.org/1999/xlink" x="0px" y="0px"
	 viewBox="0 0 24 24" style="enable-background:new 0 0 24 24;" xml:space="preserve">
<style type="text/css">
	.st0{fill:#77BC1F;}
</style>
<path class="st0" d="M21.8,1.2c-0.3,0.8-0.8,1.6-1.3,2.3C18.3,1.3,15.2,0,12,0C5.4,0,0,5.4,0,12c0,3.3,1.3,6.5,3.7,8.7l0.4,0.4
	C6.4,23,9.1,24,11.9,24c6.3,0,11.5-4.9,12-11.2C24.3,9.7,23.4,5.9,21.8,1.2L21.8,1.2z M5.5,20.8c-0.2,0.2-0.5,0.4-0.8,0.4
	c-0.6,0-1-0.5-1-1s0.5-1,1-1c0.2,0,0.5,0.1,0.6,0.2C5.7,19.7,5.8,20.4,5.5,20.8L5.5,20.8z M21.8,17.2c-3,4-9.3,2.6-13.4,2.8
	c0,0-0.7,0-1.4,0.2c0,0,0.3-0.1,0.6-0.2c2.9-1,4.2-1.2,5.9-2.1c3.3-1.7,6.5-5.3,7.2-9.1c-1.2,3.6-5,6.8-8.4,8
	c-2.4,0.9-6.6,1.7-6.6,1.7l-0.2-0.1c-2.9-1.4-3-7.7,2.3-9.7c2.3-0.9,4.5-0.4,7-1c2.7-0.6,5.7-2.6,7-5.2
	C23.1,6.7,24.8,13.2,21.8,17.2L21.8,17.2z"/>
</svg>
