<?xml version="1.0" encoding="utf-8"?>
<!-- Generator: Adobe Illustrator 25.4.1, SVG Export Plug-In . SVG Version: 6.00 Build 0)  -->
<svg version="1.1" id="Layer_1" xmlns="http://www.w3.org/2000/svg" xmlns:xlink="http://www.w3.org/1999/xlink" x="0px" y="0px"
	 viewBox="0 0 24 24" style="enable-background:new 0 0 24 24;" xml:space="preserve">
<path d="M20.7,3.2c-2.2-3.2-6.5-4.1-9.8-2.1L5.3,4.6c-1.5,1-2.6,2.5-2.9,4.3c-0.3,1.5,0,3,0.7,4.3c-0.5,0.7-0.8,1.5-1,2.4
	c-0.3,1.8,0.1,3.7,1.2,5.2c2.2,3.2,6.5,4.1,9.8,2.1l5.6-3.6c1.5-1,2.6-2.5,2.9-4.3c0.3-1.5,0-3-0.7-4.3C22.4,8.4,22.3,5.4,20.7,3.2z
	 M10.3,21.1c-1.8,0.5-3.7-0.2-4.8-1.8c-0.6-0.9-0.9-2-0.7-3.1L5,15.7l0.1-0.3l0.3,0.2c0.7,0.5,1.4,0.9,2.2,1.1l0.2,0.1l0,0.2
	c0,0.3,0.1,0.6,0.2,0.8c0.3,0.5,0.9,0.7,1.5,0.6c0.1,0,0.2-0.1,0.3-0.1l5.6-3.6c0.3-0.2,0.5-0.4,0.5-0.8c0.1-0.3,0-0.7-0.2-0.9
	c-0.3-0.5-0.9-0.7-1.5-0.5c-0.1,0-0.3,0.1-0.4,0.2l-2.1,1.3c-2,1.2-4.6,0.6-5.9-1.3c-0.6-0.9-0.9-2-0.7-3.1c0.2-1.1,0.8-2,1.8-2.6
	l5.6-3.6c0.4-0.2,0.7-0.4,1.1-0.5c1.8-0.5,3.7,0.2,4.8,1.8c0.8,1.1,1,2.4,0.6,3.6l-0.1,0.3l-0.3-0.2c-0.7-0.5-1.4-0.9-2.2-1.1
	l-0.2-0.1l0-0.2c0-0.3-0.1-0.6-0.2-0.8c-0.3-0.5-0.9-0.7-1.5-0.5c-0.1,0-0.2,0.1-0.3,0.1L8.6,9.4c-0.3,0.2-0.5,0.4-0.5,0.8
	c-0.1,0.3,0,0.7,0.2,0.9c0.3,0.5,0.9,0.7,1.4,0.5c0.1,0,0.3-0.1,0.3-0.1l2.1-1.4c0.3-0.2,0.7-0.4,1.1-0.5c1.8-0.5,3.7,0.2,4.8,1.8
	c0.6,0.9,0.9,2,0.7,3.1c-0.2,1.1-0.8,2-1.8,2.6l-5.6,3.6C11.1,20.9,10.8,21,10.3,21.1L10.3,21.1z"/>
</svg>
