<?xml version="1.0" encoding="utf-8"?>
<!-- Generator: Adobe Illustrator 25.4.1, SVG Export Plug-In . SVG Version: 6.00 Build 0)  -->
<svg version="1.1" id="Layer_1" xmlns="http://www.w3.org/2000/svg" xmlns:xlink="http://www.w3.org/1999/xlink" x="0px" y="0px"
	 viewBox="0 0 24 24" style="enable-background:new 0 0 24 24;" xml:space="preserve">
<path d="M12.8,7.3c-0.4,0.2-0.9,0.5-1.5,0.5s-1-0.3-1.3-0.5C9.8,7.2,9.7,7.1,9.6,7C9.5,6.8,9.5,6.7,9.5,6.7c0.1,0,0.1,0.2,0.2,0.2
	C9.8,7,10,7.1,10.1,7.2c0.3,0.2,0.7,0.5,1.2,0.5S12.3,7.4,12.8,7.3c0.1-0.2,0.4-0.4,0.6-0.6c0.2-0.1,0.2-0.3,0.3-0.2
	c0.1,0,0,0.2-0.1,0.3C13.3,7,13,7.2,12.8,7.3z M21.2,18.9c-0.2-0.2-0.3-0.5-0.3-0.9s-0.2-0.8-0.5-1.1l0,0c-0.1-0.1-0.2-0.2-0.4-0.2
	c0.4-1.3,0.3-2.6-0.2-3.7c-0.5-1.4-1.5-2.6-2.2-3.5c-0.8-1-1.6-2-1.6-3.4C16.1,4,16.3,0,12.5,0c-0.2,0-0.3,0-0.5,0
	C7.8,0.4,8.9,4.8,8.8,6.3c-0.1,1.1-0.3,2-1.1,3c-0.9,1.1-2.1,2.8-2.7,4.5c-0.3,0.8-0.4,1.7-0.3,2.5c0,0-0.1,0.1-0.1,0.1
	c-0.3,0.3-0.5,0.6-0.7,0.8c-0.2,0.2-0.5,0.3-0.8,0.4S2.5,18,2.3,18.4l0,0c-0.1,0.2-0.1,0.4-0.1,0.6c0,0.2,0,0.4,0.1,0.6
	c0.1,0.4,0.1,0.7,0,1C2.1,21.2,2,21.7,2.2,22c0.2,0.3,0.5,0.5,0.9,0.6c0.8,0.2,1.9,0.1,2.8,0.6L6,23l-0.1,0.1
	c0.9,0.5,1.9,0.7,2.6,0.5c0.5-0.1,1-0.4,1.2-0.9c0.6,0,1.2-0.3,2.3-0.3c0.7-0.1,1.6,0.2,2.6,0.2c0,0.1,0.1,0.2,0.1,0.3
	c0.4,0.8,1.1,1.1,1.9,1.1c0.8-0.1,1.6-0.5,2.3-1.3l-0.1-0.1l0.1,0.1c0.6-0.8,1.7-1.1,2.4-1.5c0.3-0.2,0.6-0.5,0.7-0.9
	C21.9,19.9,21.7,19.5,21.2,18.9z M11.8,4.9c0-0.3,0-0.5,0.2-0.8c0.1-0.2,0.2-0.4,0.4-0.6s0.4-0.2,0.6-0.2h0c0.2,0,0.4,0.1,0.6,0.2
	c0.2,0.1,0.3,0.3,0.4,0.6c0.1,0.2,0.2,0.5,0.2,0.8c0,0.3,0,0.5-0.2,0.8C14,5.7,13.9,5.9,13.8,6l-0.1,0c-0.1,0-0.2-0.1-0.3-0.1
	c-0.1,0-0.1-0.1-0.2-0.1c0-0.1,0.1-0.1,0.2-0.2c0.1-0.1,0.1-0.3,0.1-0.4l0,0c0-0.1,0-0.3-0.1-0.4c0-0.1-0.1-0.2-0.2-0.3
	c-0.1-0.1-0.2-0.1-0.3-0.1h0c-0.1,0-0.2,0-0.3,0.1c-0.1,0.1-0.2,0.2-0.2,0.3c-0.1,0.1-0.1,0.3-0.1,0.4l0,0c0,0.1,0,0.2,0,0.2
	c-0.2-0.1-0.4-0.2-0.6-0.2C11.8,5,11.8,5,11.8,4.9L11.8,4.9L11.8,4.9z M9.3,4.9c0-0.2,0-0.5,0.1-0.7C9.4,4,9.5,3.9,9.6,3.8
	C9.7,3.6,9.9,3.6,10,3.6h0c0.1,0,0.3,0,0.4,0.2c0.2,0.1,0.3,0.3,0.3,0.5C10.9,4.4,11,4.6,11,4.8v0c0,0.1,0,0.2,0,0.3
	c0,0-0.1,0-0.1,0c-0.2,0.1-0.3,0.1-0.4,0.2c0-0.1,0-0.2,0-0.3v0c0-0.1,0-0.2-0.1-0.3c0-0.1-0.1-0.2-0.2-0.2
	c-0.1-0.1-0.1-0.1-0.2-0.1l0,0c-0.1,0-0.1,0-0.2,0.1C9.8,4.6,9.8,4.7,9.7,4.8c0,0.1,0,0.2,0,0.4l0,0c0,0.1,0,0.2,0.1,0.3
	c0,0.1,0.1,0.2,0.2,0.3C9.9,5.8,9.9,5.9,9.8,5.9L9.7,6C9.6,5.9,9.5,5.7,9.4,5.6C9.3,5.4,9.3,5.2,9.3,4.9C9.3,4.9,9.3,4.9,9.3,4.9z
	 M9.4,6.4C9.7,6.2,9.8,6.1,9.9,6C10,6,10.1,5.9,10.1,5.9h0c0.2-0.2,0.4-0.4,0.8-0.6c0.1,0,0.3-0.1,0.5-0.1c0.3,0,0.7,0.1,1.2,0.4
	c0.3,0.2,0.5,0.2,1.1,0.4h0c0.3,0.1,0.4,0.2,0.5,0.4c0.1,0.1,0.1,0.3,0,0.5c-0.1,0.3-0.5,0.7-1.1,0.8h0c-0.3,0.1-0.5,0.3-0.8,0.4
	c-0.3,0.2-0.7,0.3-1,0.3c-0.2,0-0.3,0-0.4-0.1c-0.1-0.1-0.2-0.1-0.3-0.2C10.4,8,10.2,7.8,9.9,7.7h0C9.5,7.5,9.3,7.2,9.2,7
	C9.2,6.7,9.2,6.6,9.4,6.4z M9.6,22L9.6,22c-0.1,0.7-0.5,1.2-1.1,1.3c-0.6,0.1-1.5,0-2.4-0.5h0c-1-0.5-2.1-0.5-2.9-0.6
	c-0.4-0.1-0.6-0.2-0.7-0.4c-0.1-0.2-0.1-0.6,0.1-1.2l0,0l0,0c0.1-0.4,0-0.8,0-1.1c-0.1-0.4-0.1-0.7,0-0.9l0,0
	C2.8,18.3,3,18.1,3.3,18c0.3-0.1,0.6-0.2,0.9-0.5l0,0l0,0c0.3-0.3,0.4-0.6,0.7-0.8c0.2-0.2,0.4-0.3,0.7-0.3h0c0,0,0.1,0,0.2,0
	c0.4,0.1,0.7,0.3,1,0.8l0.9,1.7h0c0.2,0.5,0.8,1.1,1.2,1.6C9.3,21,9.6,21.6,9.6,22C9.6,22,9.6,22,9.6,22z M9.5,20.8
	c-0.1-0.2-0.3-0.4-0.4-0.6C9,20.2,8.9,20,8.8,19.9c0.2,0,0.3,0,0.5-0.1c0.1-0.1,0.3-0.2,0.3-0.3c0.1-0.3,0-0.7-0.3-1.2
	c-0.3-0.5-0.9-1-1.8-1.5c-0.6-0.4-1-0.9-1.2-1.4c-0.2-0.5-0.1-1.1,0-1.7c0.2-1.1,0.9-2.1,1.3-2.8c0.1-0.1,0,0.1-0.4,1
	c-0.4,0.8-1.1,2.5-0.1,3.9c0-1,0.3-2,0.6-2.9c0.6-1.3,1.7-3.5,1.8-5.3c0,0,0.2,0.1,0.3,0.2c0.2,0.1,0.4,0.3,0.6,0.5
	c0.2,0.2,0.5,0.3,0.9,0.3l0.1,0c0.4,0,0.7-0.1,1-0.3C12.7,8.2,12.9,8,13.2,8h0c0.5-0.1,0.8-0.4,1-0.7c0.4,1.4,1.2,3.5,1.7,4.5
	c0.3,0.5,0.9,1.7,1.1,3c0.2,0,0.3,0,0.5,0.1c0.6-1.7-0.5-3.5-1.1-4c-0.2-0.2-0.2-0.3-0.1-0.3c0.6,0.5,1.4,1.6,1.7,2.8
	c0.1,0.5,0.2,1.1,0,1.7c0.1,0,0.1,0.1,0.2,0.1c1,0.5,1.4,0.9,1.2,1.5c-0.1,0-0.1,0-0.2,0h0c0.2-0.5-0.2-0.8-1.1-1.2
	c-0.9-0.4-1.7-0.4-1.8,0.5c0,0,0,0.1,0,0.1c-0.1,0-0.1,0.1-0.2,0.1c-0.4,0.2-0.7,0.7-0.8,1.2c-0.1,0.5-0.2,1.2-0.2,1.9
	c0,0.4-0.2,0.8-0.3,1.4C13.4,21.6,11.3,22,9.5,20.8z M21.1,20.9c-0.6,0.4-1.7,0.7-2.5,1.6c-0.6,0.7-1.4,1.1-2,1.2
	c-0.7,0.1-1.2-0.2-1.6-0.9v0l0,0c-0.2-0.4-0.1-1,0.1-1.7c0.2-0.7,0.4-1.3,0.5-1.9v0c0-0.7,0.1-1.3,0.2-1.8s0.3-0.8,0.6-1l0,0
	c0,0.6,0.3,1.2,0.9,1.4c0.6,0.2,1.4-0.4,1.8-0.8c0.1,0,0.1,0,0.2,0c0.3,0,0.6,0,0.8,0.2v0h0c0.2,0.2,0.3,0.5,0.4,0.9
	c0.1,0.4,0.2,0.8,0.4,1.1h0c0.5,0.5,0.7,0.9,0.6,1.2C21.6,20.5,21.4,20.7,21.1,20.9z M11.7,5.7c0,0.1,0.1,0,0.2,0.1
	c0,0,0.1,0.1,0.1,0.1c0.1,0,0.1,0,0.1-0.1c0-0.1-0.1-0.1-0.2-0.1C11.9,5.6,11.8,5.6,11.7,5.7C11.7,5.7,11.7,5.7,11.7,5.7z M11.1,5.7
	c0,0.1-0.1,0-0.2,0.1c0,0-0.1,0.1-0.1,0.1c-0.1,0-0.1,0-0.1-0.1c0-0.1,0.1-0.1,0.2-0.1C10.9,5.6,11,5.6,11.1,5.7
	C11.1,5.7,11.1,5.7,11.1,5.7z"/>
</svg>
